<svg version="1.2" xmlns="http://www.w3.org/2000/svg" viewBox="0 0 500 501" width="500" height="501">
	<defs>
		<clipPath clipPathUnits="userSpaceOnUse" id="cp1">
			<path d="m141.83 24h214.17v268.22h-214.17z"/>
		</clipPath>
		<clipPath clipPathUnits="userSpaceOnUse" id="cp2">
			<path d="m2.67 300h496v78.67h-496z"/>
		</clipPath>
		<clipPath clipPathUnits="userSpaceOnUse" id="cp3">
			<path d="m33.33 369.33h434.67v54.67h-434.67z"/>
		</clipPath>
	</defs>
	<style>
		.s0 { fill: #fdf8f3 } 
		.s1 { fill: #c0583a } 
	</style>
	<g id="Clip-Path" clip-path="url(#cp1)">
		<g>
			<path class="s0" d="m334.14 62.06c0.7-2.25 1.54-4.64 2.44-7.17 3.4-9.58 6.62-18.64 2.82-22.13-4.62-4.26-31.93-10.53-37.63-6.65-4.22 2.88-7.46 14.1-8.09 20.76q-0.28 3.06 0.07 5.02c-5.1-1.44-17.23-4.13-22.72 0.95-6.08 5.65-26.49 53.33-24.6 66.95 0.28 1.98 1.03 3.3 2.15 3.87 0.31 0.19 4.7 2.9 15.76 7.23l-2.8 10.46c-6.76-2.67-13.36-4.52-17.22-3.62-2.19 0.51-7.36 2.01-13.78 4.14-1.36-1.8-2.91-10.86-3.56-20.96 3.89-1.63 6.52-2.74 6.97-2.93 0.36-0.15 0.62-0.47 0.69-0.87 0.42-2.65 1.23-8.9-0.16-10.91q0-0.02-0.01-0.03-0.03-0.05-0.06-0.09-0.03-0.04-0.06-0.08-0.01-0.01-0.02-0.02c-1.74-2.33-8.45-2.77-9.71-2.39l-1.57 0.48c-54.79 16.77-55.84 20.22-55.77 21.8-1.22 11.15-0.02 12.11 0.42 12.46 0.51 0.4 4.33 3.36 8.09 3.36 0.77 0 1.53-0.12 2.26-0.41 0.54-0.21 1.66-0.66 3.21-1.29 0.04 4.13 0.63 14.65 5.27 22.54-1.2 1.23-1.95 2.42-2.17 3.57q0.01 0.01 0 0c-0.27 0.93-6.4 22.69 5.97 31.14 2.1 1.43 4.96 3.3 8.29 5.41-4.79 1.47-7.94 7.29-9.21 11.88-1.01 3.63-1.34 7.43-2.38 11.07-1.09 3.75-3.11 6.79-6.28 9.06l-4.49-3.2c-2.12-1.51-4.99-1.56-7.17-0.14l-24.28 16.02c-1.73 1.14-2.76 2.97-2.84 5.02-0.08 2.07 0.8 3.98 2.43 5.24l43.13 33.69c1.15 0.9 2.52 1.35 3.89 1.35 1.23 0 2.47-0.36 3.54-1.09l24.05-16.24c9.49 5.63 23.76 8.86 39.3 8.86 5.89 0 11.49-0.43 16.64-1.27 4.8-0.78 8.4-1.6 11.69-2.66 8.1-2.61 14.22-6.26 18.18-10.82 2.39-2.77 3.92-6.13 4.56-10 0.71-4.31 1.27-10.07 0.03-13.35-0.12-7.18-6.37-13.92-17.23-18.59-0.13-4.91-0.78-9.19-1.07-10.92 8.33-5.04 17.66-11.05 23.44-15.92 12.05-10.16 11.41-39.12 11.38-40.36q0-0.1-0.02-0.19c2.23-1.92 4.05-3.47 5.26-4.46 1.15-0.96 1.79-2.37 1.75-3.88-0.33-9.79-1.23-10.76-1.62-11.17q-0.02-0.02-0.04-0.04c-0.18-0.59-0.61-1.06-1.23-1.32 3.14-5.82 21.6-40.36 24.83-54.36 3.23-14.01-15.55-21.13-20.72-22.8zm0.29-7.94c-0.85 2.4-1.73 4.87-2.45 7.15q0 0-0.01 0-0.01-0.02-0.03-0.03c-2.52-1.76-1.35-8.46 0.58-14.15 1.61-4.72 3.8-11.12 6.03-11.52 1.21 3.53-1.72 11.77-4.12 18.55zm-38.48-7.03c0.66-7.04 3.9-16.92 7.09-19.1 4.2-2.85 27.65 1.94 33.87 5.75-2.87 1.61-4.64 6.99-6.56 12.62-1.36 3.98-3.04 10.4-1.53 14.32q-0.96-0.19-2.03-0.41c-0.37-0.76-1.05-2.53-0.52-4.26 0.1-0.32-0.08-0.67-0.41-0.77-0.31-0.1-0.67 0.09-0.76 0.42-0.5 1.63-0.16 3.23 0.23 4.31q-0.75-0.16-1.54-0.32c-0.35-0.69-1.13-2.55-0.58-4.38 0.1-0.33-0.08-0.67-0.41-0.76-0.32-0.11-0.67 0.08-0.76 0.4-0.52 1.69-0.13 3.34 0.27 4.42q-0.76-0.16-1.54-0.34c-0.31-0.58-1.21-2.55-0.62-4.47 0.1-0.32-0.08-0.67-0.41-0.76-0.32-0.12-0.67 0.08-0.76 0.4-0.53 1.73-0.11 3.43 0.3 4.51q-0.76-0.18-1.52-0.34c-0.27-0.49-1.28-2.55-0.67-4.55 0.1-0.33-0.08-0.68-0.41-0.77-0.32-0.11-0.66 0.09-0.76 0.41-0.53 1.76-0.09 3.49 0.33 4.56-7.74-1.77-15.91-3.82-19.88-5.26-0.4-0.65-0.72-2.43-0.42-5.63zm-47.25 72.38c-1.81-13.02 18.43-59.89 23.89-64.96 5.89-5.47 22.57 0.19 22.74 0.24 6.69 2.48 26.61 6.97 34.93 8.52q0.17 0.14 0.4 0.21c0.17 0.06 16.86 5.3 16.58 17.55-0.3 13.08-22.9 50.93-25.59 55.4-3.68-0.99-6.75-1.48-8.44-1.25-1.43 0.17-5.57 2.38-10.95 5.62-39.05-10.83-52.34-19-52.56-19.13-0.62-0.33-0.9-1.37-1-2.2zm80.37 21.69c0.33 4.67-41.55 33.39-50.56 37.92-2.85 0.79-12.25-4.58-14.75-7.37 2.8-4.97 44.16-33.57 49.73-34.27 2.08-0.26 8.25 1 15.58 3.72zm-62.59-9.45c7.84 2.98 18.63 6.64 33.13 10.72-4.7 2.92-10.06 6.44-15.25 10.02-2.4-1.37-11.46-6.38-20.7-10.23zm-21.64 8.24c8.16-1.89 31.28 10.52 37.45 13.94-10.38 7.27-19.6 14.49-20.74 17.17-0.21 0.48-0.2 0.87-0.13 1.17-0.22 2.9-1.05 14.32 0.12 16.92 0.72 1.58 4.09 4.19 7.63 6.08q-0.01 2.17-0.05 4.35c-3.75 2.81-9.41 5.97-15.93 5.57-10.89-0.61-54.59-21.86-64.68-34.26-1.42-1.74-2.09-3.23-1.93-4.29 0.93-6.29 26.15-16.43 43.86-22.35q0.22-0.03 0.4-0.14c5.98-1.98 11.06-3.48 14-4.16zm37.74 54.71c0.87 11.01 1.19 22.74 0.4 24.08-1.67 0.97-3.13 1.81-4.32 2.49q-2.58 1.47-5.29 2.54c1.74-3.5 1.48-11.29 1.43-12.27-0.01-0.34-0.27-0.6-0.63-0.59-0.34 0.01-0.61 0.3-0.59 0.63 0.12 2.91 0.02 10.84-1.88 12.51q-0.18 0.17-0.2 0.4-1.88 0.63-3.78 1.06-0.11 0.02-0.19 0.04c1.34-1.01 1.86-1.95 2.01-2.3 1.48-2 1.82-18.52 1.91-26.91 1.69 0.72 3.31 1.19 4.55 1.19q0.52 0 0.95-0.12c1.42-0.38 3.33-1.34 5.63-2.75zm-54.17-52.08c-11.13 3.76-25.25 9.17-34.47 14.55-4.37-7.73-4.4-18.61-4.36-20.56 10.49-4.37 25.57-10.68 35.18-14.72 0.37 5.4 1.38 16.46 3.65 20.73zm-4.69-36.32l1.56-0.49c0.98-0.25 4.94 0.25 6.59 1.06-5.81 3.74-44.45 18.04-54.6 21.32-0.09 0.03-0.16 0.03-0.29 0-0.84-0.24-3.1-0.96-6.83-2.68 2.32-1.7 12.24-6.56 53.57-19.21zm-46.49 32.91c-2.6 1.02-6.43-1.26-7.96-2.44-0.39-0.8-0.25-5.07 0.12-9.09 3.76 1.71 6.09 2.45 6.98 2.7l-0.4 3.95c-0.03 0.34 0.21 0.63 0.55 0.66q0.03 0.02 0.06 0.01c0.32 0 0.58-0.23 0.61-0.55l0.4-3.99q0.2-0.03 0.39-0.09c4.42-1.42 18.56-6.48 31.52-11.47 14.61-5.62 20.85-8.42 23.44-10.05 0.13 1.63-0.03 4.45-0.45 7.33q-0.4 0.17-1.04 0.43l0.27-3.03c0.02-0.34-0.22-0.63-0.56-0.66-0.41 0.01-0.64 0.21-0.67 0.55l-0.32 3.67q-0.62 0.27-1.37 0.58l0.29-3.25c0.03-0.34-0.22-0.63-0.55-0.66-0.4 0.01-0.64 0.21-0.67 0.55l-0.34 3.81q0.01 0.04 0.01 0.08-0.66 0.28-1.39 0.58l0.31-3.46c0.03-0.34-0.22-0.64-0.55-0.67q-0.61 0.04-0.67 0.56l-0.34 3.81q0 0.14 0.05 0.27-0.67 0.28-1.4 0.59l0.28-3.21c0.03-0.35-0.22-0.64-0.55-0.67-0.39 0-0.64 0.22-0.67 0.55l-0.34 3.81q0.01 0.03 0.01 0.05-0.67 0.29-1.37 0.58l0.3-3.31c0.03-0.35-0.22-0.64-0.56-0.67-0.38-0.01-0.63 0.22-0.67 0.55l-0.33 3.81q-0.01 0.07 0.02 0.14c-11.99 5.03-28.9 12.11-37.42 15.63q-0.26 0.02-0.47 0.19c-2.27 0.92-3.88 1.57-4.55 1.83zm6.31-0.11q1.69-0.7 3.74-1.55c0.02 3.56 0.47 13.37 4.71 20.79-1.4 0.89-2.67 1.78-3.73 2.66-4.49-7.98-4.74-19-4.72-21.9zm1.84 45.44c0.92 0.96 2.18 2.1 3.89 3.32q0.16 0.11 0.35 0.11 0.31 0 0.5-0.25c0.19-0.28 0.14-0.66-0.14-0.86-2.55-1.81-4.08-3.48-4.9-4.5q-0.12-1.29-0.15-2.57c0.94 1.08 2.44 2.56 4.67 4.15q0.16 0.11 0.35 0.12c0.19 0 0.38-0.09 0.5-0.26 0.19-0.28 0.14-0.66-0.15-0.86-3.17-2.26-4.78-4.3-5.36-5.12q0.03-1.13 0.12-2.2c0.92 1.1 2.47 2.69 4.87 4.4q0.16 0.12 0.35 0.12c0.2 0 0.38-0.09 0.5-0.26 0.2-0.27 0.14-0.65-0.14-0.86-3.26-2.32-4.87-4.41-5.41-5.19q0.19-1.62 0.42-2.94 0.46 0.72 1.08 1.49c10.35 12.7 55.15 34.47 66.32 35.1q0.59 0.04 1.18 0.03c5.88 0 11.05-2.49 14.82-5.04q-0.03 1.68-0.08 3.31c-0.85 0.8-2.97 2.52-6.49 3.62-0.33 0.1-0.51 0.45-0.4 0.77 0.08 0.26 0.33 0.43 0.59 0.43q0.09 0 0.18-0.03c2.87-0.89 4.87-2.17 6.06-3.12-0.25 7.48-0.68 13.54-1.2 14.48-0.06 0.07-0.18 0.27-0.21 0.35-0.06 0.14-1.33 2.74-7.3 3.85q-0.36-0.04-0.65 0.11c-1.8 0.29-3.99 0.45-6.65 0.37-12.08-0.21-49.69-23.27-61.3-31.19-3.7-2.55-5.49-6.61-6.22-10.88zm2.79 44.64c1.37-3.14 1.91-6.54 2.55-9.88 0.65-3.36 1.45-6.5 3.23-9.47 1.59-2.64 4.19-5.7 7.63-5.21q0.07 0.01 0.14 0.01c10.04 6.22 23.3 13.87 34.33 18.89-4.5 1.97-5.3 8.75-5.79 13.38-0.42 4.05-1.01 7.83-2.91 11.52-2.47 4.77-6.2 8.7-9.95 12.47l-34.7-24.8c2.35-1.84 4.26-4.1 5.47-6.91zm0.77 60.36l-43.14-33.69c-1.05-0.81-1.61-2.03-1.55-3.36 0.05-1.31 0.71-2.49 1.81-3.22l22.35-14.72q0.03 0.02 0.05 0.04l21.82 15.28q0.16 0.11 0.35 0.11 0.31 0 0.5-0.26c0.2-0.28 0.13-0.66-0.15-0.86l-21.47-15.04 0.84-0.56c0.67-0.44 1.44-0.66 2.23-0.66 0.83 0 1.65 0.25 2.35 0.75l44.91 32.11c1.1 0.78 1.71 2 1.69 3.34-0.01 1.34-0.66 2.54-1.77 3.29l-24.06 16.24-18.87-14.91c-0.26-0.21-0.65-0.16-0.86 0.1-0.21 0.27-0.17 0.65 0.09 0.86l18.57 14.67-0.95 0.64c-1.45 1-3.37 0.92-4.74-0.15zm114.15-21.58c-3.68 4.26-9.45 7.67-17.15 10.16-3.17 1.02-6.67 1.81-11.35 2.58-5.04 0.81-10.51 1.23-16.28 1.23-14.63 0-28.06-2.91-37.19-8 0.89-0.63 1.6-1.48 2.06-2.45 2.14 1.23 10.74 5.64 25.32 6.73q0.02 0 0.04 0c0.33 0 0.59-0.25 0.62-0.57 0.03-0.34-0.23-0.63-0.57-0.66-14.64-1.09-23.31-5.71-24.97-6.66q0.19-0.72 0.21-1.48c0.02-2.08-0.97-4.03-2.66-5.23l-0.13-0.1c9.62 5 22.97 7.84 37.27 7.84 23.84 0 43.91-8.03 49.54-18.86-0.07 1.91-0.3 4.14-0.71 6.6-0.57 3.45-1.93 6.43-4.05 8.87zm4.05-21.64c0 12.55-21.9 22.75-48.83 22.75-14.65 0-28.22-3.02-37.58-8.32 2.87-3.01 5.54-6.16 7.61-9.65 9.12 3.84 18.23 5.34 26.54 5.34 15.75 0 28.59-5.37 33.02-10.4 3.27-3.7 4.24-10.07 4.31-16.01 9.51 4.3 14.93 10.18 14.93 16.29zm-17.97-27.27c-0.82 0.54-2.68 1.76-3.24 2.03-0.3 0.15-0.42 0.52-0.27 0.82 0.11 0.21 0.33 0.34 0.55 0.34q0.14 0 0.28-0.06c0.54-0.27 2-1.22 2.85-1.78q0.09 0.72 0.17 1.53c-0.8 0.53-2.71 1.78-3.28 2.06-0.31 0.16-0.43 0.52-0.27 0.83 0.1 0.21 0.32 0.34 0.54 0.34q0.14 0 0.28-0.07c0.55-0.26 2.01-1.22 2.86-1.78q0.07 0.76 0.12 1.56c-0.82 0.55-2.67 1.76-3.22 2.03-0.31 0.15-0.43 0.53-0.28 0.83 0.11 0.21 0.33 0.34 0.55 0.34q0.14 0 0.28-0.07c0.52-0.26 1.9-1.15 2.76-1.71q0.04 0.78 0.06 1.6c-0.88 0.58-2.55 1.67-3.07 1.93-0.31 0.15-0.43 0.52-0.28 0.82 0.11 0.21 0.33 0.34 0.55 0.34q0.14 0 0.28-0.06c0.48-0.24 1.68-1.01 2.54-1.57q0 0.82-0.02 1.64c-0.92 0.61-2.31 1.5-2.77 1.74-0.31 0.15-0.43 0.52-0.27 0.82 0.1 0.22 0.31 0.34 0.54 0.34q0.15 0.01 0.28-0.06c0.42-0.21 1.36-0.81 2.16-1.33q-0.09 1.59-0.3 3.13c-1.09 1.64-5.94 8.1-16.32 11.01-0.33 0.1-0.52 0.44-0.44 0.76 0.09 0.28 0.33 0.45 0.6 0.45q0.08 0 0.17-0.02c8.29-2.33 13.15-6.75 15.51-9.52-0.58 2.46-1.49 4.65-2.86 6.22-6.4 7.23-31.45 15.1-56.77 4.56 1.37-2.74 2.36-5.68 2.76-8.91 0.58-4.69 0.22-15.3 7.19-14.91q0.28 0.02 0.49-0.07c5.32 2.22 9.9 3.63 13 3.68q0.45 0.01 0.89 0.01c2.46 0 4.55-0.18 6.32-0.48q0.84 0.19 1.99 0.19 2.43-0.01 6.16-0.83c3.98-0.89 7.88-2.41 11.57-4.53 2.6-1.48 5.78-3.31 9.21-5.37q0.06 0.52 0.15 1.18zm23.92-20.11c-6.81 5.74-19.05 13.31-27.72 18.43 0.56-4.22 0.36-12.27-0.61-24.06 9.75-6.46 24.81-19.17 38.91-31.26-0.06 6.31-0.94 28.76-10.58 36.89zm16.63-45.04c-1.53 1.27-4 3.39-7.09 6.04-12.59 10.8-38.79 33.28-46.27 35.3-2.39 0.65-11.74-4.79-12.74-6.99-0.62-1.37-0.44-8.14-0.08-13.64 3.19 2.6 9.14 6.08 13.28 6.69l-0.4 6.94c-0.02 0.33 0.24 0.63 0.57 0.64q0.02 0 0.04 0c0.32 0 0.59-0.24 0.61-0.57l0.4-6.91q0.71 0 1.3-0.17c5.01-2.5 43.19-26.98 50.72-37.23 0.19 1.24 0.37 3.18 0.51 6.01q-0.02 0.02-0.04 0.03l-7.2 6.02c-0.27 0.21-0.3 0.59-0.08 0.86 0.12 0.14 0.3 0.22 0.47 0.22q0.21 0 0.4-0.14l6.51-5.44q0.01 0.15 0.01 0.3c0.02 0.8-0.31 1.54-0.92 2.04zm22.92-69.52c-3.18 13.77-22.23 49.36-24.76 54.06q-2.04-0.74-3.97-1.32c3.94-6.52 25.31-42.58 25.61-56 0.1-4.56-1.72-8.22-4.25-11.09 4.83 3.35 8.81 8.12 7.37 14.35z"/>
		</g>
	</g>
	<path class="s0" d="m256.11 98.81c-0.32-0.1-0.67 0.06-0.78 0.38-1.51 4.45-3.46 11.08-4.14 17.48-0.04 0.33 0.21 0.64 0.54 0.67q0.04 0.01 0.07 0.01c0.31 0 0.58-0.24 0.61-0.55 0.67-6.28 2.59-12.83 4.08-17.21 0.11-0.32-0.06-0.67-0.38-0.78z"/>
	<path class="s0" d="m258.32 93.03c-0.33-0.13-0.68 0.02-0.81 0.33 0 0-0.32 0.75-0.81 2.06-0.13 0.32 0.03 0.67 0.35 0.79q0.11 0.04 0.22 0.04c0.25 0 0.49-0.15 0.57-0.39 0.49-1.28 0.8-2.02 0.8-2.03 0.13-0.31-0.01-0.67-0.32-0.8z"/>
	<path class="s0" d="m321.28 157.71l-0.76 0.64c-0.26 0.22-0.3 0.61-0.08 0.86q0.19 0.22 0.47 0.22 0.21 0 0.4-0.14l0.76-0.63c0.26-0.22 0.29-0.61 0.08-0.87-0.22-0.25-0.61-0.29-0.87-0.08z"/>
	<path class="s0" d="m194.06 219.98c-0.33-0.02-0.65 0.18-0.7 0.51-0.59 3.59-1.67 8.42-3.41 11.11-0.19 0.28-0.11 0.66 0.17 0.85q0.17 0.1 0.34 0.1c0.2 0 0.4-0.1 0.52-0.28 1.86-2.85 2.98-7.87 3.6-11.57 0.04-0.34-0.18-0.66-0.52-0.72z"/>
	<path class="s0" d="m194.65 215.2c-0.33 0-0.64 0.22-0.67 0.56 0 0.01-0.06 0.68-0.19 1.76-0.04 0.33 0.19 0.64 0.53 0.68q0.04 0 0.08 0c0.31 0 0.57-0.23 0.61-0.53 0.14-1.12 0.2-1.81 0.2-1.81 0.02-0.33-0.23-0.64-0.56-0.66z"/>
	<path class="s0" d="m270.22 247.31q-1.05 0.21-2.15 0.36c-0.34 0.04-0.57 0.35-0.53 0.69 0.04 0.31 0.31 0.53 0.61 0.53q0.04 0 0.08-0.01 1.14-0.16 2.22-0.37c0.34-0.07 0.55-0.39 0.49-0.71-0.06-0.33-0.39-0.54-0.72-0.49z"/>
	<path class="s0" d="m254.94 277.18q-1.37 0-2.67-0.04c-0.34-0.04-0.63 0.26-0.64 0.59-0.02 0.35 0.25 0.63 0.59 0.64q1.33 0.04 2.72 0.04c0.34 0 0.61-0.27 0.61-0.61 0-0.35-0.27-0.62-0.61-0.62z"/>
	<path class="s0" d="m171.58 269.25c-0.26-0.21-0.65-0.17-0.87 0.1-0.2 0.26-0.16 0.65 0.11 0.86l2.26 1.8q0.18 0.13 0.39 0.13c0.18 0 0.36-0.09 0.48-0.24 0.21-0.27 0.16-0.65-0.1-0.86z"/>
	<path class="s0" d="m196.38 254.11q0.15 0.11 0.35 0.11c0.19 0 0.38-0.08 0.5-0.26 0.19-0.27 0.12-0.66-0.16-0.86l-2.47-1.73c-0.26-0.19-0.65-0.13-0.85 0.15-0.2 0.28-0.13 0.67 0.15 0.86z"/>
	<path class="s0" d="m257.33 211.54q0.02 0 0.05 0 0.8-0.06 1.54-0.16c0.34-0.05 0.57-0.35 0.53-0.69-0.04-0.33-0.37-0.55-0.68-0.53q-0.72 0.1-1.48 0.15c-0.34 0.03-0.59 0.32-0.57 0.66 0.02 0.32 0.29 0.57 0.61 0.57z"/>
	<g>
		<g id="Clip-Path" clip-path="url(#cp2)">
			<g>
				<g>
					<g>
						<g>
							<path class="s1" d="m20.42 358.12q-3.79 0-7.33-0.86-3.55-0.87-5.61-1.93v-11.11h0.57q1.83 5.59 5.41 8.96 3.6 3.37 7.9 3.37 3.41 0 5.42-1.93 2-1.96 2-4.92 0-3.12-2.38-4.79-2.36-1.69-6.87-3.13-4.19-1.29-6.8-2.62-2.58-1.33-4.16-3.67-1.59-2.35-1.59-6.14 0-3.29 1.73-5.96 1.73-2.69 4.88-4.21 3.14-1.54 7.27-1.54 3.22 0 6.37 0.73 3.17 0.73 5.07 1.6v10.31h-0.57q-1.96-5.16-4.98-8.12-3-2.96-6.95-2.96-3.01 0-4.98 1.73-1.99 1.73-1.98 4.56 0 2.9 2.39 4.52 2.4 1.63 7.48 3.29 3.89 1.3 6.38 2.59 2.47 1.27 4.14 3.73 1.69 2.44 1.69 6.39 0 3.53-1.73 6.29-1.73 2.76-5.02 4.3-3.3 1.51-7.75 1.52z"/>
						</g>
					</g>
				</g>
				<g>
					<g>
						<g>
							<path class="s1" d="m38.07 357.12q3.17-2.69 4.9-6.98l12.56-31.77h4.56l12.44 31.6q0.94 2.4 1.88 4 0.95 1.59 2.41 3.15v0.27h-13.83v-0.27q1.46-1.85 1.46-4.13 0-1.62-0.63-3.08l-2.23-5.56h-14.6l-2.06 5.18q-0.61 1.44-0.61 2.96 0 2.74 2 4.63v0.27h-8.25zm16.23-31.63l-6.81 17.46h13.6z"/>
						</g>
					</g>
				</g>
				<g>
					<g>
						<g>
							<path class="s1" d="m82.03 357.12q1.96-2.63 1.96-7.04v-24.42q0-4.39-1.96-7.02v-0.27h12v0.27q-1.96 2.63-1.96 7.02v30.33h5.59q3.72 0 6.21-1.14 2.47-1.15 4.06-3.17 1.6-2.04 2.98-5.27h0.56l-1.4 10.98h-28.04z"/>
						</g>
					</g>
				</g>
				<g>
					<g>
						<g>
							<path class="s1" d="m133.36 358.12q-5.73 0-10.06-2.5-4.31-2.52-6.69-7.13-2.37-4.6-2.37-10.62 0-6.02 2.37-10.61 2.38-4.6 6.69-7.1 4.33-2.52 10.06-2.52 5.75 0 10.07 2.52 4.32 2.5 6.68 7.1 2.38 4.59 2.38 10.61 0 6.02-2.38 10.62-2.36 4.61-6.68 7.13-4.32 2.5-10.07 2.5zm0-1.46q3.29 0 5.67-2.36 2.37-2.37 3.58-6.6 1.23-4.25 1.23-9.83 0-5.56-1.23-9.79-1.21-4.25-3.58-6.61-2.38-2.37-5.67-2.37-3.23 0-5.6 2.37-2.36 2.36-3.63 6.61-1.25 4.23-1.25 9.79 0 5.58 1.25 9.83 1.27 4.23 3.63 6.6 2.37 2.36 5.6 2.36z"/>
						</g>
					</g>
				</g>
				<g>
					<g>
						<g>
							<path class="s1" d="m158.65 357.05q1.46-1.66 2.23-3.33 0.79-1.68 0.79-3.64v-24.46q0-1.96-0.79-3.63-0.77-1.68-2.23-3.35v-0.27h9.92l20.31 26.98v-19.69q0-1.94-0.79-3.61-0.77-1.68-2.23-3.35v-0.33h7.69v0.33q-1.44 1.67-2.23 3.35-0.77 1.67-0.77 3.61v31.73h-2.06l-25.15-33v25.69q0 1.96 0.77 3.64 0.79 1.67 2.23 3.33v0.34h-7.69z"/>
						</g>
					</g>
				</g>
				<g>
					<g>
						<g>
							<path class="s1" d="m201.17 357.12q1.95-2.63 1.95-7.04v-24.42q0-4.39-1.95-7.02v-0.27h27.37l1.4 10.64h-0.57q-2-4.62-4.93-6.93-2.92-2.32-8.34-2.32h-4.89v17.27h4.96q3.18 0 5-1.5 1.81-1.49 2.58-4.35h0.56v13.1h-0.56q-0.77-2.83-2.58-4.33-1.82-1.52-5-1.52h-4.96v17.56h6.12q5.41 0 8.34-2.31 2.93-2.31 4.93-6.94h0.57l-1.4 10.65h-28.6z"/>
						</g>
					</g>
				</g>
				<g>
					<g>
						<g>
						</g>
					</g>
				</g>
				<g>
					<g>
						<g>
							<path class="s1" d="m252.93 357.12q1.96-2.63 1.96-7.04v-24.42q0-4.39-1.96-7.02v-0.27h12v0.27q-1.96 2.63-1.96 7.02v30.33h5.59q3.72 0 6.2-1.14 2.48-1.15 4.07-3.17 1.6-2.04 2.98-5.27h0.56l-1.4 10.98h-28.04z"/>
						</g>
					</g>
				</g>
				<g>
					<g>
						<g>
							<path class="s1" d="m287.03 357.12q1.96-2.63 1.96-7.04v-24.42q0-4.39-1.96-7.02v-0.27h12v0.27q-1.96 2.63-1.96 7.02v24.42q0 4.41 1.96 7.04v0.27h-12z"/>
						</g>
					</g>
				</g>
				<g>
					<g>
						<g>
							<path class="s1" d="m344.62 337.87q0 6.02-2.38 10.62-2.36 4.61-6.69 7.13-4.31 2.5-10.06 2.5-1.44 0-2.79-0.17 2.23 2.27 5.94 2.92 3.7 0.64 10.02 0.64v7.15h-1.63q-5.79 0-10.06-2.92-4.27-2.89-5.71-8.02-4.58-0.83-7.93-3.54-3.34-2.7-5.15-6.88-1.81-4.18-1.81-9.43 0-6.02 2.37-10.61 2.38-4.6 6.69-7.1 4.33-2.52 10.06-2.52 5.75 0 10.06 2.52 4.33 2.5 6.69 7.1 2.38 4.59 2.38 10.61zm-29.61 0q0 5.58 1.25 9.83 1.27 4.23 3.63 6.6 2.37 2.36 5.6 2.36 3.29 0 5.67-2.36 2.37-2.37 3.58-6.6 1.23-4.25 1.23-9.83 0-5.56-1.23-9.79-1.21-4.25-3.58-6.61-2.38-2.37-5.67-2.37-3.23 0-5.6 2.37-2.36 2.36-3.63 6.61-1.25 4.23-1.25 9.79z"/>
						</g>
					</g>
				</g>
				<g>
					<g>
						<g>
							<path class="s1" d="m368.45 358.12q-7.3 0-11.42-3.46-4.12-3.46-4.12-9.71v-19.29q-0.01-4.39-1.96-7.02v-0.27h12v0.27q-1.96 2.63-1.96 7.02v19.29q0 5.13 2.69 7.9 2.7 2.75 7.39 2.75 4.69 0 7.4-2.75 2.71-2.77 2.71-7.9v-19.29q0-1.94-0.79-3.61-0.78-1.68-2.23-3.35v-0.33h7.68v0.33q-1.43 1.67-2.22 3.35-0.78 1.67-0.78 3.61v19.29q0 6.31-3.7 9.75-3.71 3.42-10.69 3.42z"/>
						</g>
					</g>
				</g>
				<g>
					<g>
						<g>
							<path class="s1" d="m392.79 357.12q1.96-2.63 1.96-7.04v-24.42q0-4.39-1.96-7.02v-0.27h12v0.27q-1.96 2.63-1.96 7.02v24.42q0 4.41 1.96 7.04v0.27h-12z"/>
						</g>
					</g>
				</g>
				<g>
					<g>
						<g>
							<path class="s1" d="m413.86 357.12q1.95-2.63 1.96-7.04v-24.42q-0.01-4.39-1.96-7.02v-0.27h16.16q5.58 0 10.17 1.96 4.6 1.93 7.42 6.29 2.83 4.36 2.83 11.25 0 6.92-2.83 11.27-2.82 4.36-7.42 6.31-4.59 1.94-10.17 1.94h-16.16zm15.12-1.19q4 0 6.92-2.17 2.94-2.16 4.5-6.23 1.56-4.07 1.56-9.66 0-5.56-1.56-9.63-1.56-4.07-4.5-6.25-2.92-2.18-6.92-2.18-2.42 0-5.08 0.85v34.44q2.66 0.83 5.08 0.83z"/>
						</g>
					</g>
				</g>
				<g>
					<g>
						<g>
							<path class="s1" d="m474.99 358.12q-5.73 0-10.06-2.5-4.31-2.52-6.69-7.13-2.37-4.6-2.37-10.62 0-6.02 2.37-10.61 2.38-4.6 6.69-7.1 4.33-2.52 10.06-2.52 5.75 0 10.07 2.52 4.32 2.5 6.68 7.1 2.38 4.59 2.38 10.61 0 6.02-2.38 10.62-2.36 4.61-6.68 7.13-4.32 2.5-10.07 2.5zm0-1.46q3.29 0 5.67-2.36 2.37-2.37 3.58-6.6 1.23-4.25 1.23-9.83 0-5.56-1.23-9.79-1.21-4.25-3.58-6.61-2.38-2.37-5.67-2.37-3.23 0-5.6 2.37-2.36 2.36-3.62 6.61-1.25 4.23-1.25 9.79 0 5.58 1.25 9.83 1.26 4.23 3.62 6.6 2.37 2.36 5.6 2.36z"/>
						</g>
					</g>
				</g>
			</g>
		</g>
	</g>
	<g>
		<g id="Clip-Path" clip-path="url(#cp3)">
			<g>
				<g>
					<g>
						<g>
							<path class="s0" d="m41.41 389.28q-1.86 0-3.21-0.89-1.36-0.92-2.09-2.44-0.71-1.54-0.7-3.34 0-1.95 0.81-3.52 0.83-1.56 2.33-2.45 1.5-0.9 3.46-0.9 1.16 0 2.15 0.25 0.97 0.25 1.58 0.6v3.02h-0.19q-0.4-1.47-1.56-2.39-1.17-0.92-2.71-0.92-1.98 0-3.08 1.5-1.09 1.48-1.09 3.92 0 1.79 0.63 3.23 0.64 1.42 1.77 2.23 1.14 0.79 2.6 0.79 2.79 0 4.11-2.94h0.19q-0.24 1.19-0.9 2.17-0.67 0.96-1.71 1.52-1.04 0.56-2.39 0.56z"/>
						</g>
					</g>
				</g>
				<g>
					<g>
						<g>
							<path class="s0" d="m58.94 389.18q-0.98 0-1.64-0.48-0.65-0.48-1.02-1.19-0.36-0.73-0.73-1.83-0.3-0.92-0.56-1.48-0.28-0.56-0.71-0.94-0.44-0.37-1.04-0.37h-1.55v4.22q0 0.53 0.17 1.03 0.17 0.5 0.42 0.85v0.08h-2.94v-0.08q0.23-0.35 0.4-0.85 0.16-0.5 0.16-1.03v-9.18q0-0.54-0.16-1.04-0.17-0.5-0.4-0.84v-0.1h4.6q1.25 0 2.32 0.37 1.06 0.38 1.68 1.17 0.65 0.77 0.65 1.94 0 1.04-0.56 1.79-0.56 0.73-1.44 1.12-0.86 0.38-1.75 0.44v0.02q0.75 0.03 1.29 0.5 0.54 0.46 0.9 1.13 0.35 0.67 0.73 1.66 0.47 1.26 0.89 1.9 0.44 0.65 1.09 0.65 0.37 0 0.64-0.25l0.11 0.08q-0.24 0.36-0.63 0.54-0.4 0.17-0.92 0.17zm-5.25-6.69q1.36 0 2.19-0.79 0.83-0.81 0.84-2.27 0-1.48-0.88-2.27-0.86-0.82-2.29-0.82-0.44 0.01-0.96 0.09-0.5 0.06-0.9 0.18v5.88z"/>
						</g>
					</g>
				</g>
				<g>
					<g>
						<g>
							<path class="s0" d="m63.03 388.99q0.23-0.35 0.4-0.85 0.16-0.5 0.17-1.03v-9.18q-0.01-0.54-0.17-1.04-0.17-0.5-0.4-0.84v-0.1h8.44l0.4 3.1h-0.19q-0.4-0.91-0.83-1.48-0.43-0.58-1.13-0.89-0.69-0.33-1.71-0.34h-2.62v5.9h2.5q1.66 0 2.06-1.65h0.19v3.67h-0.19q-0.42-1.64-2.06-1.65h-2.5v6.07h3.08q1.02 0 1.71-0.32 0.7-0.33 1.12-0.89 0.44-0.58 0.84-1.48h0.19l-0.4 3.08h-8.9z"/>
						</g>
					</g>
				</g>
				<g>
					<g>
						<g>
							<path class="s0" d="m75.6 388.99q0.23-0.35 0.4-0.85 0.16-0.5 0.17-1.03v-9.18q-0.01-0.54-0.17-1.04-0.17-0.5-0.4-0.84v-0.1h4.75q1.83 0 3.36 0.66 1.51 0.65 2.44 2.11 0.93 1.46 0.93 3.79 0 2.34-0.93 3.79-0.93 1.46-2.44 2.13-1.53 0.64-3.36 0.64h-4.75zm4.32-0.33q2.33 0 3.77-1.48 1.43-1.48 1.43-4.67 0-3.16-1.43-4.64-1.44-1.5-3.77-1.5-0.9 0-1.96 0.27v11.75q1.06 0.27 1.96 0.27z"/>
						</g>
					</g>
				</g>
				<g>
					<g>
						<g>
							<path class="s0" d="m90.48 388.99q0.24-0.35 0.41-0.85 0.17-0.5 0.17-1.03v-9.18q0-0.54-0.17-1.04-0.17-0.5-0.41-0.84v-0.1h2.89v0.1q-0.25 0.34-0.41 0.84-0.17 0.5-0.17 1.04v9.18q0 0.53 0.17 1.03 0.16 0.5 0.41 0.85v0.08h-2.89z"/>
						</g>
					</g>
				</g>
				<g>
					<g>
						<g>
							<path class="s0" d="m100.34 388.99q0.25-0.35 0.41-0.85 0.17-0.5 0.17-1.03v-10.77h-1.19q-1.42 0-2.2 0.69-0.8 0.69-1.38 2.06h-0.19l0.4-3.14h10.92l0.39 3.14h-0.19q-0.58-1.35-1.37-2.04-0.77-0.7-2.19-0.71h-1.21v10.77q0 0.53 0.17 1.03 0.17 0.5 0.42 0.85v0.08h-2.96z"/>
						</g>
					</g>
				</g>
				<g>
					<g>
						<g>
							<path class="s0" d="m115.6 389.28q-1.8 0-3.17-0.83-1.38-0.85-2.15-2.4-0.75-1.54-0.75-3.54 0-2 0.75-3.54 0.77-1.54 2.15-2.38 1.37-0.85 3.17-0.85 1.79 0 3.16 0.85 1.38 0.84 2.13 2.38 0.77 1.54 0.77 3.54 0 2-0.77 3.54-0.75 1.55-2.13 2.4-1.37 0.83-3.16 0.83zm0-0.42q1.2 0.01 2.14-0.79 0.94-0.81 1.44-2.25 0.5-1.45 0.5-3.31 0-1.85-0.5-3.29-0.5-1.45-1.44-2.25-0.94-0.81-2.14-0.81-1.24 0-2.17 0.81-0.92 0.8-1.42 2.25-0.5 1.44-0.5 3.29 0 1.86 0.5 3.31 0.5 1.44 1.42 2.25 0.93 0.8 2.17 0.79z"/>
						</g>
					</g>
				</g>
				<g>
					<g>
						<g>
						</g>
					</g>
				</g>
				<g>
					<g>
						<g>
							<path class="s0" d="m129.12 388.99q0.48-0.35 0.81-0.79 0.35-0.46 0.58-1.09l4.44-11.25h0.63l4.43 11.25q0.25 0.65 0.5 1.07 0.25 0.42 0.63 0.81v0.08h-3.35v-0.08q0.18-0.2 0.31-0.5 0.12-0.31 0.12-0.65 0-0.35-0.14-0.75l-1-2.56h-5.04l-1 2.52q-0.17 0.44-0.17 0.81 0 0.69 0.56 1.13v0.08h-2.31zm5.44-10.93l-2.4 6.08h4.77z"/>
						</g>
					</g>
				</g>
				<g>
					<g>
						<g>
							<path class="s0" d="m149.39 389.28q-1.96 0-3.38-0.89-1.4-0.92-2.12-2.44-0.73-1.52-0.73-3.34 0-1.97 0.83-3.54 0.85-1.56 2.38-2.43 1.54-0.9 3.5-0.9 1.1 0 2.06 0.27 0.98 0.25 1.58 0.58v3.02h-0.18q-0.43-1.49-1.57-2.39-1.15-0.92-2.62-0.92-1.25 0-2.21 0.69-0.96 0.69-1.48 1.94-0.52 1.23-0.52 2.81 0 2 0.65 3.54 0.64 1.52 1.83 2.38 1.2 0.83 2.83 0.83 1.25 0 2.02-0.4v-3.25q0-0.54-0.25-1.04-0.23-0.5-0.64-0.83v-0.11h3.16v0.11q-0.27 0.36-0.43 0.85-0.15 0.49-0.15 1.02v2.9q-0.9 0.75-2.06 1.15-1.15 0.39-2.5 0.39z"/>
						</g>
					</g>
				</g>
				<g>
					<g>
						<g>
							<path class="s0" d="m157.64 388.99q0.22-0.35 0.39-0.85 0.17-0.5 0.17-1.03v-9.18q0-0.54-0.17-1.04-0.17-0.5-0.39-0.84v-0.1h8.43l0.4 3.1h-0.19q-0.4-0.91-0.83-1.48-0.42-0.58-1.13-0.89-0.69-0.33-1.7-0.34h-2.63v5.9h2.5q1.66 0 2.06-1.65h0.19v3.67h-0.19q-0.42-1.64-2.06-1.65h-2.5v6.07h3.08q1.02 0 1.71-0.32 0.71-0.33 1.13-0.89 0.43-0.58 0.83-1.48h0.19l-0.4 3.08h-8.89z"/>
						</g>
					</g>
				</g>
				<g>
					<g>
						<g>
							<path class="s0" d="m169.98 377.93q-0.25-0.64-0.5-1.07-0.25-0.43-0.63-0.81v-0.1h3.34v0.1q-0.44 0.46-0.44 1.13 0 0.37 0.16 0.83l3.38 8.92 3.4-8.86q0.2-0.56 0.2-0.93 0-0.69-0.56-1.09v-0.1h2.33v0.1q-0.52 0.34-0.85 0.79-0.33 0.44-0.58 1.09l-4.32 11.23h-0.62z"/>
						</g>
					</g>
				</g>
				<g>
					<g>
						<g>
							<path class="s0" d="m188.56 389.28q-1.79 0-3.17-0.83-1.37-0.85-2.14-2.4-0.75-1.54-0.75-3.54 0-2 0.75-3.54 0.77-1.54 2.14-2.38 1.38-0.85 3.17-0.85 1.79 0 3.17 0.85 1.37 0.84 2.12 2.38 0.77 1.54 0.77 3.54 0 2-0.77 3.54-0.75 1.55-2.12 2.4-1.38 0.83-3.17 0.83zm0-0.42q1.21 0.01 2.15-0.79 0.93-0.81 1.43-2.25 0.5-1.45 0.5-3.31 0-1.85-0.5-3.29-0.5-1.45-1.43-2.25-0.94-0.81-2.15-0.81-1.23 0-2.17 0.81-0.92 0.8-1.41 2.25-0.5 1.44-0.5 3.29 0 1.86 0.5 3.31 0.49 1.44 1.41 2.25 0.94 0.8 2.17 0.79z"/>
						</g>
					</g>
				</g>
				<g>
					<g>
						<g>
							<path class="s0" d="m198.01 388.99q0.22-0.35 0.39-0.85 0.17-0.5 0.17-1.03v-9.18q0-0.54-0.17-1.04-0.17-0.5-0.39-0.84v-0.1h2.93v0.1q-0.25 0.34-0.41 0.84-0.17 0.5-0.17 1.04v10.75h2.9q1.03 0 1.7-0.32 0.69-0.33 1.13-0.91 0.44-0.58 0.83-1.5h0.19l-0.4 3.12h-8.7z"/>
						</g>
					</g>
				</g>
				<g>
					<g>
						<g>
							<path class="s0" d="m208.1 388.99q0.47-0.35 0.81-0.79 0.35-0.46 0.58-1.09l4.44-11.25h0.63l4.43 11.25q0.25 0.65 0.5 1.07 0.25 0.42 0.63 0.81v0.08h-3.36v-0.08q0.19-0.2 0.32-0.5 0.12-0.31 0.12-0.65 0-0.35-0.14-0.75l-1-2.56h-5.05l-1 2.52q-0.17 0.44-0.16 0.81 0 0.69 0.56 1.13v0.08h-2.31zm5.43-10.93l-2.39 6.08h4.77z"/>
						</g>
					</g>
				</g>
				<g>
					<g>
						<g>
							<path class="s0" d="m225.7 388.99q0.25-0.35 0.42-0.85 0.16-0.5 0.16-1.03v-10.77h-1.18q-1.42 0-2.21 0.69-0.8 0.69-1.38 2.06h-0.19l0.4-3.14h10.92l0.39 3.14h-0.18q-0.59-1.35-1.38-2.04-0.77-0.7-2.19-0.71h-1.21v10.77q0 0.53 0.17 1.03 0.17 0.5 0.42 0.85v0.08h-2.96z"/>
						</g>
					</g>
				</g>
				<g>
					<g>
						<g>
							<path class="s0" d="m240.96 389.28q-1.8 0-3.17-0.83-1.38-0.85-2.15-2.4-0.75-1.54-0.75-3.54 0-2 0.75-3.54 0.77-1.54 2.15-2.38 1.37-0.85 3.17-0.85 1.79 0 3.16 0.85 1.38 0.84 2.13 2.38 0.77 1.54 0.77 3.54 0 2-0.77 3.54-0.75 1.55-2.13 2.4-1.37 0.83-3.16 0.83zm0-0.42q1.2 0.01 2.14-0.79 0.94-0.81 1.44-2.25 0.5-1.45 0.5-3.31 0-1.85-0.5-3.29-0.5-1.45-1.44-2.25-0.94-0.81-2.14-0.81-1.23 0-2.17 0.81-0.92 0.8-1.42 2.25-0.5 1.44-0.5 3.29 0 1.86 0.5 3.31 0.5 1.44 1.42 2.25 0.94 0.8 2.17 0.79z"/>
						</g>
					</g>
				</g>
				<g>
					<g>
						<g>
						</g>
					</g>
				</g>
				<g>
					<g>
						<g>
							<path class="s0" d="m256.02 388.99q0.23-0.35 0.4-0.85 0.16-0.5 0.16-1.03v-9.18q0-0.54-0.16-1.04-0.17-0.5-0.4-0.84v-0.1h4.46q2.12 0 3.54 0.89 1.42 0.9 1.42 2.96 0 1.32-0.65 2.21-0.64 0.9-1.71 1.31-1.04 0.42-2.25 0.42-1.04 0-1.89-0.38v-0.2q0.69 0.17 1.46 0.16 1.52 0 2.33-1 0.83-1 0.83-2.52 0-0.93-0.37-1.71-0.36-0.78-1.06-1.27-0.71-0.48-1.75-0.48-0.61 0-1.07 0.07-0.46 0.06-0.93 0.2v10.5q-0.01 0.53 0.16 1.03 0.17 0.5 0.42 0.85v0.08h-2.94z"/>
						</g>
					</g>
				</g>
				<g>
					<g>
						<g>
							<path class="s0" d="m268.52 388.99q0.22-0.35 0.39-0.85 0.17-0.5 0.17-1.03v-9.18q0-0.54-0.17-1.04-0.17-0.5-0.39-0.84v-0.1h8.43l0.4 3.1h-0.19q-0.39-0.91-0.83-1.48-0.42-0.58-1.13-0.89-0.69-0.33-1.7-0.34h-2.63v5.9h2.5q1.67 0 2.06-1.65h0.19v3.67h-0.19q-0.42-1.64-2.06-1.65h-2.5v6.07h3.08q1.02 0 1.71-0.32 0.71-0.33 1.13-0.89 0.43-0.58 0.83-1.48h0.19l-0.4 3.08h-8.89z"/>
						</g>
					</g>
				</g>
				<g>
					<g>
						<g>
							<path class="s0" d="m290.69 389.18q-0.98 0-1.64-0.48-0.65-0.48-1.03-1.19-0.35-0.73-0.72-1.83-0.3-0.92-0.57-1.48-0.27-0.56-0.71-0.94-0.43-0.37-1.04-0.37h-1.54v4.22q0 0.53 0.17 1.03 0.16 0.5 0.41 0.85v0.08h-2.93v-0.08q0.22-0.35 0.39-0.85 0.17-0.5 0.17-1.03v-9.18q0-0.54-0.17-1.04-0.17-0.5-0.39-0.84v-0.1h4.6q1.25 0 2.31 0.37 1.07 0.38 1.69 1.17 0.64 0.77 0.65 1.94 0 1.04-0.57 1.79-0.56 0.73-1.43 1.12-0.86 0.38-1.75 0.44v0.02q0.74 0.03 1.29 0.5 0.54 0.46 0.89 1.13 0.36 0.67 0.73 1.66 0.48 1.26 0.9 1.9 0.44 0.65 1.08 0.65 0.38 0 0.65-0.25l0.1 0.08q-0.23 0.36-0.62 0.54-0.4 0.17-0.92 0.17zm-5.25-6.69q1.35 0 2.19-0.79 0.83-0.81 0.83-2.27 0-1.48-0.87-2.27-0.86-0.82-2.29-0.82-0.44 0.01-0.96 0.09-0.51 0.06-0.9 0.18v5.88z"/>
						</g>
					</g>
				</g>
				<g>
					<g>
						<g>
						</g>
					</g>
				</g>
				<g>
					<g>
						<g>
							<path class="s0" d="m300.4 388.99q0.23-0.35 0.4-0.85 0.16-0.5 0.16-1.03v-9.18q0-0.54-0.16-1.04-0.17-0.5-0.4-0.84v-0.1h4.46q2.12 0 3.54 0.89 1.42 0.9 1.42 2.96 0 1.32-0.65 2.21-0.64 0.9-1.71 1.31-1.04 0.42-2.25 0.42-1.04 0-1.89-0.38v-0.2q0.68 0.17 1.46 0.16 1.51 0 2.33-1 0.83-1 0.83-2.52 0-0.93-0.37-1.71-0.36-0.78-1.06-1.27-0.72-0.48-1.75-0.48-0.61 0-1.07 0.07-0.46 0.06-0.93 0.2v10.5q-0.01 0.53 0.16 1.03 0.17 0.5 0.42 0.85v0.08h-2.94z"/>
						</g>
					</g>
				</g>
				<g>
					<g>
						<g>
							<path class="s0" d="m311.35 388.99q0.48-0.35 0.82-0.79 0.35-0.46 0.58-1.09l4.44-11.25h0.62l4.44 11.25q0.25 0.65 0.5 1.07 0.25 0.42 0.63 0.81v0.08h-3.36v-0.08q0.19-0.2 0.31-0.5 0.13-0.31 0.13-0.65 0-0.35-0.15-0.75l-1-2.56h-5.04l-1 2.52q-0.17 0.44-0.17 0.81 0 0.69 0.57 1.13v0.08h-2.32zm5.44-10.93l-2.39 6.08h4.77z"/>
						</g>
					</g>
				</g>
				<g>
					<g>
						<g>
							<path class="s0" d="m335.71 389.18q-0.99 0-1.65-0.48-0.65-0.48-1.02-1.19-0.36-0.73-0.73-1.83-0.3-0.92-0.56-1.48-0.27-0.56-0.71-0.94-0.44-0.37-1.04-0.37h-1.54v4.22q-0.01 0.53 0.16 1.03 0.17 0.5 0.42 0.85v0.08h-2.94v-0.08q0.23-0.35 0.4-0.85 0.16-0.5 0.17-1.03v-9.18q-0.01-0.54-0.17-1.04-0.17-0.5-0.4-0.84v-0.1h4.61q1.25 0 2.31 0.37 1.06 0.38 1.69 1.17 0.64 0.77 0.64 1.94 0 1.04-0.56 1.79-0.56 0.73-1.44 1.12-0.86 0.38-1.75 0.44v0.02q0.75 0.03 1.29 0.5 0.54 0.46 0.9 1.13 0.35 0.67 0.73 1.66 0.47 1.26 0.9 1.9 0.43 0.65 1.08 0.65 0.37 0 0.64-0.25l0.11 0.08q-0.24 0.36-0.63 0.54-0.4 0.17-0.91 0.17zm-5.25-6.69q1.35 0 2.18-0.79 0.84-0.81 0.84-2.27 0-1.48-0.88-2.27-0.85-0.82-2.29-0.82-0.44 0.01-0.96 0.09-0.5 0.06-0.89 0.18v5.88z"/>
						</g>
					</g>
				</g>
				<g>
					<g>
						<g>
							<path class="s0" d="m349.4 389.18q-0.98 0-1.64-0.48-0.65-0.48-1.03-1.19-0.35-0.73-0.72-1.83-0.3-0.92-0.57-1.48-0.27-0.56-0.71-0.94-0.43-0.37-1.04-0.37h-1.54v4.22q0 0.53 0.17 1.03 0.16 0.5 0.41 0.85v0.08h-2.93v-0.08q0.22-0.35 0.39-0.85 0.17-0.5 0.17-1.03v-9.18q0-0.54-0.17-1.04-0.17-0.5-0.39-0.84v-0.1h4.6q1.25 0 2.31 0.37 1.07 0.38 1.69 1.17 0.64 0.77 0.65 1.94 0 1.04-0.57 1.79-0.56 0.73-1.43 1.12-0.86 0.38-1.75 0.44v0.02q0.74 0.03 1.29 0.5 0.54 0.46 0.89 1.13 0.36 0.67 0.73 1.66 0.48 1.26 0.9 1.9 0.44 0.65 1.08 0.65 0.38 0 0.65-0.25l0.1 0.08q-0.23 0.36-0.62 0.54-0.4 0.17-0.92 0.17zm-5.25-6.69q1.35 0 2.19-0.79 0.83-0.81 0.83-2.27 0-1.48-0.87-2.27-0.86-0.82-2.29-0.82-0.44 0.01-0.96 0.09-0.51 0.06-0.9 0.18v5.88z"/>
						</g>
					</g>
				</g>
				<g>
					<g>
						<g>
							<path class="s0" d="m358.82 389.28q-2.35 0-3.7-1.1-1.34-1.13-1.34-3.17v-7.08q0-0.54-0.16-1.04-0.17-0.5-0.42-0.84v-0.1h2.94v0.1q-0.24 0.34-0.42 0.84-0.17 0.5-0.17 1.04v7.08q0 1.75 1 2.73 1.02 0.96 2.67 0.96 1.64 0 2.65-0.96 1-0.98 1-2.73v-7.08q-0.01-0.52-0.21-0.94-0.19-0.44-0.61-0.94v-0.1h2.13v0.1q-0.4 0.5-0.61 0.94-0.21 0.42-0.2 0.94v7.08q-0.01 2.02-1.23 3.15-1.21 1.12-3.32 1.12z"/>
						</g>
					</g>
				</g>
				<g>
					<g>
						<g>
							<path class="s0" d="m372.96 389.28q-1.86 0-3.21-0.89-1.35-0.92-2.08-2.44-0.71-1.54-0.71-3.34 0-1.95 0.82-3.52 0.83-1.56 2.33-2.45 1.5-0.9 3.46-0.9 1.16 0 2.14 0.25 0.98 0.25 1.59 0.6v3.02h-0.19q-0.4-1.47-1.56-2.39-1.17-0.92-2.71-0.92-1.99 0-3.09 1.5-1.08 1.48-1.08 3.92 0 1.79 0.63 3.23 0.64 1.42 1.77 2.23 1.14 0.79 2.6 0.79 2.79 0 4.11-2.94h0.18q-0.23 1.19-0.89 2.17-0.67 0.96-1.71 1.52-1.05 0.56-2.4 0.56z"/>
						</g>
					</g>
				</g>
				<g>
					<g>
						<g>
							<path class="s0" d="m386.19 389.28q-1.86 0-3.21-0.89-1.36-0.92-2.08-2.44-0.71-1.54-0.71-3.34 0-1.95 0.81-3.52 0.83-1.56 2.33-2.45 1.5-0.9 3.46-0.9 1.17 0 2.15 0.25 0.97 0.25 1.58 0.6v3.02h-0.19q-0.39-1.47-1.56-2.39-1.17-0.92-2.71-0.92-1.98 0-3.08 1.5-1.08 1.48-1.08 3.92 0 1.79 0.62 3.23 0.64 1.42 1.77 2.23 1.14 0.79 2.61 0.79 2.79 0 4.1-2.94h0.19q-0.23 1.19-0.9 2.17-0.67 0.96-1.71 1.52-1.04 0.56-2.39 0.56z"/>
						</g>
					</g>
				</g>
				<g>
					<g>
						<g>
							<path class="s0" d="m394.12 388.99q0.23-0.35 0.4-0.85 0.16-0.5 0.16-1.03v-9.18q0-0.54-0.16-1.04-0.17-0.5-0.4-0.84v-0.1h2.94v0.1q-0.25 0.34-0.42 0.84-0.17 0.5-0.16 1.04v4.18h6.6v-4.18q0-0.54-0.17-1.04-0.17-0.5-0.41-0.84v-0.1h2.93v0.1q-0.25 0.34-0.41 0.84-0.17 0.5-0.17 1.04v9.18q0 0.53 0.17 1.03 0.16 0.5 0.41 0.85v0.08h-2.93v-0.08q0.24-0.35 0.41-0.85 0.17-0.5 0.17-1.03v-4.6h-6.6v4.6q-0.01 0.53 0.16 1.03 0.17 0.5 0.42 0.85v0.08h-2.94z"/>
						</g>
					</g>
				</g>
				<g>
					<g>
						<g>
							<path class="s0" d="m409.52 388.99q0.25-0.35 0.42-0.85 0.16-0.5 0.16-1.03v-9.18q0-0.54-0.16-1.04-0.17-0.5-0.42-0.84v-0.1h2.9v0.1q-0.25 0.34-0.42 0.84-0.17 0.5-0.17 1.04v9.18q0 0.53 0.17 1.03 0.17 0.5 0.42 0.85v0.08h-2.9z"/>
						</g>
					</g>
				</g>
				<g>
					<g>
						<g>
							<path class="s0" d="m416.53 388.99q0.22-0.35 0.39-0.85 0.17-0.5 0.17-1.03v-9.18q0-0.54-0.17-1.04-0.17-0.5-0.39-0.84v-0.1h8.43l0.4 3.1h-0.19q-0.39-0.91-0.83-1.48-0.42-0.58-1.13-0.89-0.69-0.33-1.7-0.34h-2.63v5.9h2.5q1.67 0 2.06-1.65h0.19v3.67h-0.19q-0.42-1.64-2.06-1.65h-2.5v6.07h3.08q1.02 0 1.71-0.32 0.71-0.33 1.13-0.89 0.43-0.58 0.83-1.48h0.19l-0.4 3.08h-8.89z"/>
						</g>
					</g>
				</g>
				<g>
					<g>
						<g>
							<path class="s0" d="m438.7 389.18q-0.98 0-1.64-0.48-0.65-0.48-1.03-1.19-0.35-0.73-0.72-1.83-0.3-0.92-0.57-1.48-0.27-0.56-0.71-0.94-0.43-0.37-1.04-0.37h-1.54v4.22q0 0.53 0.17 1.03 0.16 0.5 0.41 0.85v0.08h-2.93v-0.08q0.22-0.35 0.39-0.85 0.17-0.5 0.17-1.03v-9.18q0-0.54-0.17-1.04-0.17-0.5-0.39-0.84v-0.1h4.6q1.25 0 2.31 0.37 1.07 0.38 1.69 1.17 0.64 0.77 0.65 1.94 0 1.04-0.57 1.79-0.56 0.73-1.43 1.12-0.86 0.38-1.75 0.44v0.02q0.74 0.03 1.29 0.5 0.54 0.46 0.89 1.13 0.36 0.67 0.73 1.66 0.48 1.26 0.9 1.9 0.44 0.65 1.08 0.65 0.38 0 0.65-0.25l0.1 0.08q-0.23 0.36-0.62 0.54-0.4 0.17-0.92 0.17zm-5.25-6.69q1.35 0 2.19-0.79 0.83-0.81 0.83-2.27 0-1.48-0.87-2.27-0.86-0.82-2.29-0.82-0.44 0.01-0.96 0.09-0.51 0.06-0.9 0.18v5.88z"/>
						</g>
					</g>
				</g>
				<g>
					<g>
						<g>
							<path class="s0" d="m442.79 388.99q0.25-0.35 0.42-0.85 0.16-0.5 0.16-1.03v-9.18q0-0.54-0.16-1.04-0.17-0.5-0.42-0.84v-0.1h2.9v0.1q-0.25 0.34-0.42 0.84-0.17 0.5-0.17 1.04v9.18q0 0.53 0.17 1.03 0.17 0.5 0.42 0.85v0.08h-2.9z"/>
						</g>
					</g>
				</g>
				<g>
					<g>
						<g>
						</g>
					</g>
				</g>
				<g>
					<g>
						<g>
							<path class="s0" d="m455.42 388.99q0.22-0.35 0.39-0.85 0.17-0.5 0.17-1.03v-9.18q0-0.54-0.17-1.04-0.17-0.5-0.39-0.84v-0.1h8.44l0.39 3.1h-0.19q-0.39-0.91-0.83-1.48-0.42-0.58-1.12-0.89-0.69-0.33-1.71-0.34h-2.63v5.9h2.5q1.67 0 2.06-1.65h0.19v3.67h-0.19q-0.42-1.64-2.06-1.65h-2.5v6.07h3.09q1.01 0 1.7-0.32 0.71-0.33 1.13-0.89 0.44-0.58 0.83-1.48h0.19l-0.4 3.08h-8.89z"/>
						</g>
					</g>
				</g>
				<g>
					<g>
						<g>
							<path class="s0" d="m182.36 415.19q0.23-0.35 0.4-0.85 0.17-0.5 0.17-1.02v-9.19q0-0.54-0.17-1.04-0.17-0.5-0.4-0.84v-0.1h4.67q1.94 0 3.23 0.73 1.29 0.73 1.29 2.31 0 1.25-0.87 2-0.86 0.74-2.07 0.96v0.04q0.9 0.11 1.69 0.54 0.81 0.44 1.31 1.19 0.5 0.73 0.5 1.71 0 1.88-1.47 2.77-1.49 0.88-3.61 0.88h-4.67zm4.3-7.21q1.39 0 2.2-0.75 0.82-0.75 0.82-1.98 0-1.17-0.86-1.94-0.83-0.77-2.35-0.77-0.86 0-1.75 0.27v5.17zm-0.08 6.89q1.06 0 1.87-0.39 0.81-0.42 1.25-1.17 0.46-0.75 0.46-1.69 0-1.47-0.98-2.35-0.96-0.89-2.5-0.9h-1.96v6.15q0.81 0.36 1.86 0.35z"/>
						</g>
					</g>
				</g>
				<g>
					<g>
						<g>
							<path class="s0" d="m193.99 415.19q0.48-0.35 0.81-0.79 0.35-0.46 0.59-1.08l4.44-11.25h0.62l4.44 11.25q0.25 0.65 0.5 1.06 0.25 0.42 0.62 0.81v0.09h-3.35v-0.09q0.19-0.2 0.31-0.5 0.13-0.31 0.13-0.64-0.01-0.36-0.15-0.75l-1-2.57h-5.04l-1 2.52q-0.17 0.44-0.17 0.82 0 0.68 0.56 1.12v0.09h-2.31zm5.44-10.94l-2.4 6.08h4.77z"/>
						</g>
					</g>
				</g>
				<g>
					<g>
						<g>
							<path class="s0" d="m218.34 415.38q-0.98 0-1.64-0.48-0.65-0.48-1.02-1.19-0.36-0.72-0.73-1.83-0.3-0.92-0.56-1.48-0.28-0.56-0.71-0.94-0.44-0.37-1.04-0.37h-1.55v4.23q0 0.52 0.17 1.02 0.17 0.5 0.42 0.85v0.09h-2.94v-0.09q0.23-0.35 0.4-0.85 0.16-0.5 0.16-1.02v-9.19q0-0.54-0.16-1.04-0.17-0.5-0.4-0.84v-0.1h4.6q1.25 0 2.32 0.38 1.06 0.37 1.68 1.16 0.65 0.78 0.65 1.94 0 1.04-0.56 1.79-0.56 0.74-1.44 1.13-0.86 0.37-1.75 0.43v0.02q0.75 0.03 1.29 0.5 0.54 0.47 0.9 1.13 0.35 0.67 0.73 1.67 0.47 1.25 0.89 1.89 0.44 0.65 1.09 0.65 0.37 0 0.64-0.25l0.11 0.08q-0.24 0.36-0.63 0.54-0.4 0.17-0.92 0.17zm-5.25-6.69q1.36 0 2.19-0.79 0.83-0.81 0.84-2.27 0-1.48-0.88-2.27-0.86-0.81-2.29-0.81-0.44 0-0.96 0.08-0.5 0.06-0.9 0.19v5.87z"/>
						</g>
					</g>
				</g>
				<g>
					<g>
						<g>
							<path class="s0" d="m222.43 415.19q0.23-0.35 0.4-0.85 0.17-0.5 0.17-1.02v-9.19q0-0.54-0.17-1.04-0.17-0.5-0.4-0.84v-0.1h4.67q1.94 0 3.23 0.73 1.29 0.73 1.29 2.31 0 1.25-0.87 2-0.86 0.74-2.07 0.96v0.04q0.9 0.11 1.69 0.54 0.81 0.44 1.31 1.19 0.5 0.73 0.5 1.71 0 1.88-1.47 2.77-1.49 0.88-3.61 0.88h-4.67zm4.3-7.21q1.39 0 2.2-0.75 0.82-0.75 0.82-1.98 0-1.17-0.86-1.94-0.83-0.77-2.35-0.77-0.86 0-1.75 0.27v5.17zm-0.08 6.89q1.06 0 1.87-0.39 0.81-0.42 1.25-1.17 0.46-0.75 0.46-1.69 0-1.47-0.98-2.35-0.96-0.89-2.5-0.9h-1.96v6.15q0.81 0.36 1.86 0.35z"/>
						</g>
					</g>
				</g>
				<g>
					<g>
						<g>
							<path class="s0" d="m235.6 415.19q0.23-0.35 0.4-0.85 0.16-0.5 0.17-1.02v-9.19q-0.01-0.54-0.17-1.04-0.17-0.5-0.4-0.84v-0.1h8.44l0.4 3.1h-0.19q-0.4-0.91-0.83-1.47-0.43-0.59-1.13-0.9-0.69-0.33-1.71-0.33h-2.62v5.89h2.5q1.66 0 2.06-1.64h0.19v3.66h-0.19q-0.42-1.64-2.06-1.64h-2.5v6.06h3.08q1.02 0 1.71-0.31 0.7-0.33 1.12-0.9 0.44-0.58 0.84-1.48h0.19l-0.4 3.09h-8.9z"/>
						</g>
					</g>
				</g>
				<g>
					<g>
						<g>
							<path class="s0" d="m257.78 415.38q-0.99 0-1.65-0.48-0.65-0.48-1.02-1.19-0.36-0.72-0.73-1.83-0.3-0.92-0.56-1.48-0.27-0.56-0.71-0.94-0.44-0.37-1.04-0.37h-1.54v4.23q0 0.52 0.16 1.02 0.17 0.5 0.42 0.85v0.09h-2.94v-0.09q0.23-0.35 0.4-0.85 0.16-0.5 0.17-1.02v-9.19q-0.01-0.54-0.17-1.04-0.17-0.5-0.4-0.84v-0.1h4.61q1.25 0 2.31 0.38 1.06 0.37 1.69 1.16 0.64 0.78 0.64 1.94 0 1.04-0.56 1.79-0.56 0.74-1.44 1.13-0.86 0.37-1.75 0.43v0.02q0.75 0.03 1.3 0.5 0.53 0.47 0.89 1.13 0.35 0.67 0.73 1.67 0.48 1.25 0.9 1.89 0.43 0.65 1.08 0.65 0.37 0 0.65-0.25l0.1 0.08q-0.24 0.36-0.63 0.54-0.4 0.17-0.91 0.17zm-5.25-6.69q1.35 0 2.19-0.79 0.83-0.81 0.83-2.27 0-1.48-0.88-2.27-0.85-0.81-2.29-0.81-0.44 0-0.96 0.08-0.5 0.06-0.89 0.19v5.87z"/>
						</g>
					</g>
				</g>
				<g>
					<g>
						<g>
						</g>
					</g>
				</g>
				<g>
					<g>
						<g>
							<path class="s0" d="m271.26 415.48q-1.21 0-2.29-0.29-1.07-0.29-1.67-0.64v-3.21h0.19q0.45 1.67 1.5 2.66 1.04 1 2.33 1 1.25 0.01 2-0.72 0.77-0.75 0.77-1.9 0-1.17-0.83-1.79-0.81-0.64-2.25-1.13-1.27-0.43-2.06-0.83-0.8-0.41-1.3-1.15-0.5-0.72-0.5-1.87 0-1.06 0.53-1.9 0.51-0.83 1.45-1.29 0.96-0.48 2.19-0.48 0.98 0 1.94 0.27 0.98 0.25 1.54 0.57v2.93h-0.19q-0.44-1.5-1.35-2.37-0.9-0.9-2.21-0.9-1.09 0-1.85 0.67-0.75 0.65-0.75 1.77-0.01 0.75 0.41 1.25 0.44 0.5 1.11 0.85 0.66 0.34 1.68 0.69 1.27 0.42 2.05 0.83 0.76 0.43 1.31 1.19 0.54 0.78 0.54 1.98 0 1.11-0.56 1.98-0.55 0.88-1.52 1.35-0.96 0.48-2.21 0.48z"/>
						</g>
					</g>
				</g>
				<g>
					<g>
						<g>
							<path class="s0" d="m279.05 415.19q0.22-0.35 0.39-0.85 0.17-0.5 0.17-1.02v-9.19q0-0.54-0.17-1.04-0.17-0.5-0.39-0.84v-0.1h2.93v0.1q-0.25 0.34-0.41 0.84-0.17 0.5-0.17 1.04v4.19h6.6v-4.19q0-0.54-0.16-1.04-0.17-0.5-0.42-0.84v-0.1h2.94v0.1q-0.25 0.34-0.42 0.84-0.17 0.5-0.16 1.04v9.19q-0.01 0.52 0.16 1.02 0.17 0.5 0.42 0.85v0.09h-2.94v-0.09q0.25-0.35 0.42-0.85 0.16-0.5 0.16-1.02v-4.61h-6.6v4.61q0 0.52 0.17 1.02 0.16 0.5 0.41 0.85v0.09h-2.93z"/>
						</g>
					</g>
				</g>
				<g>
					<g>
						<g>
							<path class="s0" d="m299.8 415.48q-1.8 0.01-3.17-0.83-1.38-0.85-2.14-2.4-0.75-1.54-0.75-3.54 0-1.99 0.75-3.54 0.76-1.54 2.14-2.37 1.37-0.86 3.17-0.86 1.79 0 3.17 0.86 1.37 0.83 2.12 2.37 0.77 1.55 0.77 3.54 0 2-0.77 3.54-0.75 1.55-2.12 2.4-1.38 0.84-3.17 0.83zm0-0.41q1.2 0 2.14-0.79 0.94-0.82 1.44-2.25 0.5-1.46 0.5-3.32 0-1.85-0.5-3.29-0.5-1.45-1.44-2.25-0.94-0.81-2.14-0.81-1.23 0-2.17 0.81-0.92 0.8-1.41 2.25-0.5 1.44-0.5 3.29 0 1.86 0.5 3.32 0.49 1.43 1.41 2.25 0.94 0.79 2.17 0.79z"/>
						</g>
					</g>
				</g>
				<g>
					<g>
						<g>
							<path class="s0" d="m309.24 415.19q0.23-0.35 0.4-0.85 0.16-0.5 0.17-1.02v-9.19q-0.01-0.54-0.17-1.04-0.17-0.5-0.4-0.84v-0.1h4.46q2.12 0 3.54 0.9 1.42 0.89 1.42 2.95 0 1.32-0.65 2.21-0.64 0.9-1.7 1.32-1.05 0.41-2.25 0.41-1.05 0-1.9-0.37v-0.21q0.69 0.17 1.46 0.17 1.52 0 2.33-1 0.83-1 0.84-2.53 0-0.93-0.38-1.7-0.36-0.79-1.06-1.27-0.71-0.48-1.75-0.48-0.61 0-1.06 0.06-0.47 0.06-0.94 0.21v10.5q-0.01 0.52 0.16 1.02 0.17 0.5 0.42 0.85v0.09h-2.94z"/>
						</g>
					</g>
				</g>
			</g>
		</g>
	</g>
</svg>